# xmcd CD database file
#
# Track frame offsets:
#	150
#	12150
#	29292
#	43712
#	58522
#	71041
#	84506
#	97996
#	112733
#	133644
#
# Disc length: 1979 seconds
#
# Revision: 0
# Processed by: cddbd v1.5.1PL0 Copyright (c) Steve Scherf et al.
# Submitted via: Feurio! 1.68 - http://www.feurio.com
#
DISCID=7707b90a
DTITLE=Waylon Jennings - Turn The Page
DYEAR=1985
DGENRE=Country
TTITLE0=??? - The Devil's On The Loose
TTITLE1=??? - You Showed Me Something About Lovin' [I Never Knew Was]
TTITLE2=??? - Good Morning, John [For Johnny Cash, My Friend For 20 Years]
TTITLE3=??? - The Broken Promise Land
TTITLE4=??? - Don't Bring It Around Anymore
TTITLE5=??? - Rhiannon
TTITLE6=??? - Drinkin' And Dreamin'
TTITLE7=??? - As Far As The Eye Can See
TTITLE8=??? - Turn The Page
TTITLE9=??? - Those Kind Of Memories
EXTD=(p)1985 RCA Victor \r\n
EXTT0=
EXTT1=
EXTT2=
EXTT3=
EXTT4=
EXTT5=
EXTT6=
EXTT7=
EXTT8=
EXTT9=
PLAYORDER=
